<svg width="23" height="29" viewBox="0 0 23 29" fill="none" xmlns="http://www.w3.org/2000/svg">
<path d="M11.2042 1C9.24323 1 7.65492 2.58831 7.65492 4.54929C7.65492 5.33901 7.91225 6.06661 8.34703 6.66112C6.61675 7.65492 5.43661 9.50942 5.43661 11.6479C5.43661 13.4491 6.2707 15.0552 7.57506 16.1111C4.91309 17.0517 1 21.0357 1 28.0633H21.4084C21.4084 21.0357 17.4953 17.0517 14.8334 16.1111C16.1377 15.0552 16.9718 13.4491 16.9718 11.6479C16.9718 9.50942 15.7917 7.65492 14.0614 6.66112C14.4962 6.06661 14.7535 5.33901 14.7535 4.54929C14.7535 2.58831 13.1652 1 11.2042 1Z" fill="white" stroke="#0E1118" stroke-width="1.21597" stroke-linecap="round"/>
</svg>
